PathFileType	4	(X/Y/Z)	Kaydara																																																																																																																									
DataRate	CameraRate	NumFrames	NumMarkers	Units	OrigDataRate	OrigDataStartFrame	OrigNumFrames																																																																																																																					
30	30	4	41	mm	30	154	148																																																																																																																					
Frame#	Time	SALE_LFHD			SALE_RFHD			SALE_LBHD			SALE_RBHD			SALE_LFTShould			SALE_RFTShould			SALE_LRRShould			SALE_RRRShould			SALE_T10			SALE_STRN			SALE_TRUN			SALE_LSHO			SALE_LUPA			SALE_LELB			SALE_LFRM			SALE_LWRA			SALE_LWRB			SALE_LFIN			SALE_RSHO			SALE_RUPA			SALE_RELB			SALE_RFRM			SALE_RWRB			SALE_RFIN			SALE_LFWT			SALE_RFWT			SALE_LBWT			SALE_RBWT			SALE_LTHI			SALE_LKNE			SALE_RWRA			SALE_LSHN			SALE_LANK			SALE_LHEE			SALE_LTOE			SALE_RTHI			SALE_RKNE			SALE_RSHN			SALE_RANK			SALE_RHEE			SALE_RTOE		
		X1	Y1	Z1	X2	Y2	Z2	X3	Y3	Z3	X4	Y4	Z4	X5	Y5	Z5	X6	Y6	Z6	X7	Y7	Z7	X8	Y8	Z8	X9	Y9	Z9	X10	Y10	Z10	X11	Y11	Z11	X12	Y12	Z12	X13	Y13	Z13	X14	Y14	Z14	X15	Y15	Z15	X16	Y16	Z16	X17	Y17	Z17	X18	Y18	Z18	X19	Y19	Z19	X20	Y20	Z20	X21	Y21	Z21	X22	Y22	Z22	X23	Y23	Z23	X24	Y24	Z24	X25	Y25	Z25	X26	Y26	Z26	X27	Y27	Z27	X28	Y28	Z28	X29	Y29	Z29	X30	Y30	Z30	X31	Y31	Z31	X32	Y32	Z32	X33	Y33	Z33	X34	Y34	Z34	X35	Y35	Z35	X36	Y36	Z36	X37	Y37	Z37	X38	Y38	Z38	X39	Y39	Z39	X40	Y40	Z40	X41	Y41	Z41
																																																																																																																												
130	5.1	175.01558	1577.06375	1854.51004	42.39972	1579.74319	1856.19217	169.32335	1551.73889	1722.05505	41.24095	1553.02765	1730.5899	177.37198	1314.39743	1824.24622	37.65902	1309.89044	1830.42511	167.45827	1368.35388	1709.28787	17.0827	1371.00739	1722.41989	90.53476	1214.71397	1650.25101	106.68518	1241.43616	1875.63019	107.30127	1156.3649	1918.452	288.47525	1341.00922	1750.43488	326.82671	1126.89636	1776.55014	311.99118	1013.84163	1789.18732	338.25523	938.78403	1876.63025	283.81649	882.34131	2020.23468	345.45155	845.54855	1992.52441	345.54386	849.94621	2056.23734	-71.75954	1337.30698	1770.87936	-98.57748	1112.69272	1695.80917	-147.07083	1017.44308	1720.64606	-145.87924	907.10258	1695.25085	-196.85257	773.85429	1702.66327	-218.13	718.03001	1737.22397	240.27393	906.42403	1845.45303	-34.15826	908.04031	1873.83957	161.18959	955.19539	1682.35535	-15.88068	956.69731	1695.56305	201.94624	631.13274	1649.02512	210.43833	447.26723	1690.49942	-167.45844	761.38046	1771.63895	203.12689	272.2793	1571.15799	196.60139	153.55108	1420.66452	154.49059	146.24883	1339.42352	169.75681	43.73145	1503.46786	-57.35707	638.48103	1802.95578	-16.1938	526.96129	1963.35403	37.87008	337.94773	2013.01437	-10.81477	83.45804	2024.58588	29.94484	22.06599	1956.76361	14.0724	41.22705	2147.59354
131	5.133	171.53547	1580.99396	1894.79645	39.04889	1585.61829	1897.70325	164.24353	1555.09674	1762.59674	36.22773	1558.25439	1772.47238	171.94296	1320.32867	1866.45065	32.46855	1315.77499	1873.49014	160.9367	1372.87903	1751.32416	11.0972	1375.1889	1765.28992	84.51585	1218.61755	1693.66913	101.66986	1248.46657	1919.29764	102.91171	1163.93661	1963.46588	282.2154	1346.76651	1791.60263	318.99906	1131.67931	1812.66006	302.65713	1019.33075	1825.06836	331.13457	937.91954	1906.85562	279.79696	871.23024	2047.8035	339.43474	835.41397	2014.94568	342.12029	834.51172	2078.56415	-77.32857	1342.88513	1814.73343	-103.56266	1118.18665	1743.55789	-151.69732	1021.93764	1771.10977	-149.99071	911.28632	1747.55356	-199.78695	777.57042	1758.62305	-219.98598	722.05826	1794.65363	232.56754	909.77074	1895.36407	-40.27347	919.23584	1916.76331	162.23799	956.88766	1728.01376	-14.89609	965.58121	1737.89108	194.26025	617.2245	1715.24872	208.03337	437.70557	1768.05634	-169.63461	767.05772	1827.44614	204.65767	278.31476	1626.22803	196.99854	181.59039	1461.47781	153.92054	190.5501	1383.73474	169.71399	45.76579	1515.20325	-64.84472	649.25812	1850.50507	-9.2907	537.37663	2003.45306	41.31144	338.30597	2033.0159	-10.82977	82.99123	2028.4967	30.53245	21.78767	1959.14902	19.22686	39.34251	2151.73294
132	5.167	167.74651	1585.36942	1934.7496	35.22988	1590.17288	1938.64609	159.44828	1558.68149	1802.81952	31.43457	1562.01202	1813.69141	167.53395	1325.87189	1907.48871	28.33394	1321.24146	1915.68283	155.6624	1377.62054	1792.56409	6.36784	1379.44794	1807.67212	79.67105	1223.0407	1735.72266	97.58754	1254.40613	1961.45355	98.91211	1169.6006	2005.40192	277.26368	1352.44354	1832.10083	314.47569	1137.04041	1851.77902	295.15196	1024.83818	1860.02838	325.769	936.26556	1933.57986	277.9376	857.043	2070.159	335.47306	824.07547	2031.35544	340.29716	814.19197	2092.90375	-81.54964	1348.33893	1858.31741	-112.78762	1122.78778	1791.88583	-156.12661	1026.63269	1822.47208	-153.95874	914.71596	1802.03979	-202.22853	780.45296	1818.92349	-222.96734	727.4218	1858.12576	228.96326	910.05836	1934.49829	-46.98363	926.92871	1955.27496	162.37877	956.75934	1768.11111	-14.80747	972.33841	1777.78214	187.58701	599.45114	1782.29141	203.15067	428.16799	1853.71552	-172.81462	774.22745	1888.66241	200.88358	284.55284	1698.59955	197.17049	210.84179	1522.31857	157.41532	234.6562	1447.1405	169.50434	68.4897	1551.04141	-69.59815	655.187	1879.98016	-16.07579	536.70544	2025.54352	37.49441	338.23658	2048.75488	-11.75576	81.53682	2029.92981	30.6514	22.7972	1959.20441	18.23553	38.4518	2152.45865
133	5.2	163.82641	1590.06622	1974.80942	31.26395	1593.59955	1979.16504	155.31443	1562.5769	1843.08182	27.36143	1564.8175	1854.31061	164.81892	1329.46472	1947.07169	25.97258	1324.78256	1956.94138	151.96676	1381.81061	1832.53983	2.63272	1383.50998	1849.37729	75.20286	1228.125	1774.02084	95.65001	1257.4791	2001.47919	97.48727	1172.1714	2044.47906	273.87821	1356.04218	1870.59814	312.2143	1140.80582	1890.28473	292.59501	1027.61414	1896.75873	323.16055	933.67584	1958.76282	276.88641	839.54819	2086.67999	331.60301	809.41376	2041.02188	338.52715	792.02194	2101.16425	-84.56034	1352.05475	1901.3385	-119.45058	1125.09842	1839.87823	-160.39989	1029.11743	1874.68292	-158.7254	915.97054	1858.32306	-204.74964	781.5741	1883.20343	-226.2006	732.76924	1927.27081	228.40445	910.93903	1969.55536	-46.97925	934.01184	1997.40814	158.41423	956.03767	1803.22403	-17.9827	977.47002	1817.37213	181.40444	590.52147	1850.05463	199.16508	428.27694	1943.96805	-175.18936	781.00075	1953.9444	195.16016	293.62942	1780.44815	193.6212	236.1862	1597.70721	151.72153	264.69049	1524.44565	172.1253	92.2043	1616.50848	-74.87254	664.98886	1906.28143	-21.92571	533.53508	2043.2608	32.977	336.86523	2059.99176	-12.44339	81.72994	2031.73645	30.30595	22.84242	1959.30664	17.51769	37.93998	2152.60162
